<svg height="2814" width="720" xmlns="http://www.w3.org/2000/svg">
<rect height="2814" fill="#555" width="720"></rect>
<text fill="#7f7" font-family="Courier New" font-size="12" xml:space="preserve">
<tspan x="10" y="26">40 megabytes installed</tspan>
<tspan x="10" y="42"></tspan>
<tspan x="10" y="58">node_modules</tspan>
<tspan x="10" y="74">└─┬ hapi-ending@0.9.2 </tspan>
<tspan x="10" y="90">  ├── code@2.1.0 </tspan>
<tspan x="10" y="106">  ├─┬ coveralls@2.11.6 </tspan>
<tspan x="10" y="122">  │ ├─┬ js-yaml@3.0.1 </tspan>
<tspan x="10" y="138">  │ │ ├─┬ argparse@0.1.16 </tspan>
<tspan x="10" y="154">  │ │ │ ├── underscore@1.7.0 </tspan>
<tspan x="10" y="170">  │ │ │ └── underscore.string@2.4.0 </tspan>
<tspan x="10" y="186">  │ │ └── esprima@1.0.4 </tspan>
<tspan x="10" y="202">  │ ├── lcov-parse@0.0.6 </tspan>
<tspan x="10" y="218">  │ ├── log-driver@1.2.4 </tspan>
<tspan x="10" y="234">  │ ├── minimist@1.2.0 </tspan>
<tspan x="10" y="250">  │ └─┬ request@2.67.0 </tspan>
<tspan x="10" y="266">  │   ├── aws-sign2@0.6.0 </tspan>
<tspan x="10" y="282">  │   ├─┬ bl@1.0.3 </tspan>
<tspan x="10" y="298">  │   │ └─┬ readable-stream@2.0.6 </tspan>
<tspan x="10" y="314">  │   │   ├── core-util-is@1.0.2 </tspan>
<tspan x="10" y="330">  │   │   ├── isarray@1.0.0 </tspan>
<tspan x="10" y="346">  │   │   ├── process-nextick-args@1.0.7 </tspan>
<tspan x="10" y="362">  │   │   ├── string_decoder@0.10.31 </tspan>
<tspan x="10" y="378">  │   │   └── util-deprecate@1.0.2 </tspan>
<tspan x="10" y="394">  │   ├── caseless@0.11.0 </tspan>
<tspan x="10" y="410">  │   ├─┬ combined-stream@1.0.5 </tspan>
<tspan x="10" y="426">  │   │ └── delayed-stream@1.0.0 </tspan>
<tspan x="10" y="442">  │   ├── extend@3.0.0 </tspan>
<tspan x="10" y="458">  │   ├── forever-agent@0.6.1 </tspan>
<tspan x="10" y="474">  │   ├─┬ form-data@1.0.1 </tspan>
<tspan x="10" y="490">  │   │ └─┬ async@2.3.0 </tspan>
<tspan x="10" y="506">  │   │   └── lodash@4.17.4 </tspan>
<tspan x="10" y="522">  │   ├─┬ har-validator@2.0.6 </tspan>
<tspan x="10" y="538">  │   │ ├─┬ chalk@1.1.3 </tspan>
<tspan x="10" y="554">  │   │ │ ├── ansi-styles@2.2.1 </tspan>
<tspan x="10" y="570">  │   │ │ ├── escape-string-regexp@1.0.5 </tspan>
<tspan x="10" y="586">  │   │ │ ├─┬ has-ansi@2.0.0 </tspan>
<tspan x="10" y="602">  │   │ │ │ └── ansi-regex@2.1.1 </tspan>
<tspan x="10" y="618">  │   │ │ ├── strip-ansi@3.0.1 </tspan>
<tspan x="10" y="634">  │   │ │ └── supports-color@2.0.0 </tspan>
<tspan x="10" y="650">  │   │ ├─┬ is-my-json-valid@2.16.0 </tspan>
<tspan x="10" y="666">  │   │ │ ├── generate-function@2.0.0 </tspan>
<tspan x="10" y="682">  │   │ │ ├─┬ generate-object-property@1.2.0 </tspan>
<tspan x="10" y="698">  │   │ │ │ └── is-property@1.0.2 </tspan>
<tspan x="10" y="714">  │   │ │ ├── jsonpointer@4.0.1 </tspan>
<tspan x="10" y="730">  │   │ │ └── xtend@4.0.1 </tspan>
<tspan x="10" y="746">  │   │ └─┬ pinkie-promise@2.0.1 </tspan>
<tspan x="10" y="762">  │   │   └── pinkie@2.0.4 </tspan>
<tspan x="10" y="778">  │   ├─┬ hawk@3.1.3 </tspan>
<tspan x="10" y="794">  │   │ ├── cryptiles@2.0.5 </tspan>
<tspan x="10" y="810">  │   │ ├── hoek@2.16.3 </tspan>
<tspan x="10" y="826">  │   │ └─┬ sntp@1.0.9 </tspan>
<tspan x="10" y="842">  │   │   └── hoek@2.16.3 </tspan>
<tspan x="10" y="858">  │   ├─┬ http-signature@1.1.1 </tspan>
<tspan x="10" y="874">  │   │ ├── assert-plus@0.2.0 </tspan>
<tspan x="10" y="890">  │   │ ├─┬ jsprim@1.4.0 </tspan>
<tspan x="10" y="906">  │   │ │ ├── assert-plus@1.0.0 </tspan>
<tspan x="10" y="922">  │   │ │ ├── extsprintf@1.0.2 </tspan>
<tspan x="10" y="938">  │   │ │ ├── json-schema@0.2.3 </tspan>
<tspan x="10" y="954">  │   │ │ └── verror@1.3.6 </tspan>
<tspan x="10" y="970">  │   │ └─┬ sshpk@1.13.0 </tspan>
<tspan x="10" y="986">  │   │   ├── asn1@0.2.3 </tspan>
<tspan x="10" y="1002">  │   │   ├── assert-plus@1.0.0 </tspan>
<tspan x="10" y="1018">  │   │   ├── bcrypt-pbkdf@1.0.1 </tspan>
<tspan x="10" y="1034">  │   │   ├─┬ dashdash@1.14.1 </tspan>
<tspan x="10" y="1050">  │   │   │ └── assert-plus@1.0.0 </tspan>
<tspan x="10" y="1066">  │   │   ├── ecc-jsbn@0.1.1 </tspan>
<tspan x="10" y="1082">  │   │   ├─┬ getpass@0.1.6 </tspan>
<tspan x="10" y="1098">  │   │   │ └── assert-plus@1.0.0 </tspan>
<tspan x="10" y="1114">  │   │   ├── jodid25519@1.0.2 </tspan>
<tspan x="10" y="1130">  │   │   ├── jsbn@0.1.1 </tspan>
<tspan x="10" y="1146">  │   │   └── tweetnacl@0.14.5 </tspan>
<tspan x="10" y="1162">  │   ├── is-typedarray@1.0.0 </tspan>
<tspan x="10" y="1178">  │   ├── isstream@0.1.2 </tspan>
<tspan x="10" y="1194">  │   ├── json-stringify-safe@5.0.1 </tspan>
<tspan x="10" y="1210">  │   ├─┬ mime-types@2.1.15 </tspan>
<tspan x="10" y="1226">  │   │ └── mime-db@1.27.0 </tspan>
<tspan x="10" y="1242">  │   ├── node-uuid@1.4.8 </tspan>
<tspan x="10" y="1258">  │   ├── oauth-sign@0.8.2 </tspan>
<tspan x="10" y="1274">  │   ├── qs@5.2.1 </tspan>
<tspan x="10" y="1290">  │   ├── stringstream@0.0.5 </tspan>
<tspan x="10" y="1306">  │   ├── tough-cookie@2.2.2 </tspan>
<tspan x="10" y="1322">  │   └── tunnel-agent@0.4.3 </tspan>
<tspan x="10" y="1338">  ├─┬ dot-object@1.5.4 </tspan>
<tspan x="10" y="1354">  │ ├─┬ commander@2.9.0 </tspan>
<tspan x="10" y="1370">  │ │ └── graceful-readlink@1.0.1 </tspan>
<tspan x="10" y="1386">  │ └─┬ glob@7.1.1 </tspan>
<tspan x="10" y="1402">  │   ├── fs.realpath@1.0.0 </tspan>
<tspan x="10" y="1418">  │   ├─┬ inflight@1.0.6 </tspan>
<tspan x="10" y="1434">  │   │ └── wrappy@1.0.2 </tspan>
<tspan x="10" y="1450">  │   ├── inherits@2.0.3 </tspan>
<tspan x="10" y="1466">  │   ├─┬ minimatch@3.0.3 </tspan>
<tspan x="10" y="1482">  │   │ └─┬ brace-expansion@1.1.7 </tspan>
<tspan x="10" y="1498">  │   │   ├── balanced-match@0.4.2 </tspan>
<tspan x="10" y="1514">  │   │   └── concat-map@0.0.1 </tspan>
<tspan x="10" y="1530">  │   ├── once@1.4.0 </tspan>
<tspan x="10" y="1546">  │   └── path-is-absolute@1.0.1 </tspan>
<tspan x="10" y="1562">  ├─┬ handlebars@4.0.5 </tspan>
<tspan x="10" y="1578">  │ ├── async@1.5.2 </tspan>
<tspan x="10" y="1594">  │ ├─┬ optimist@0.6.1 </tspan>
<tspan x="10" y="1610">  │ │ ├── minimist@0.0.10 </tspan>
<tspan x="10" y="1626">  │ │ └── wordwrap@0.0.3 </tspan>
<tspan x="10" y="1642">  │ ├─┬ source-map@0.4.4 </tspan>
<tspan x="10" y="1658">  │ │ └── amdefine@1.0.1 </tspan>
<tspan x="10" y="1674">  │ └─┬ uglify-js@2.8.22 </tspan>
<tspan x="10" y="1690">  │   ├── source-map@0.5.6 </tspan>
<tspan x="10" y="1706">  │   ├── uglify-to-browserify@1.0.2 </tspan>
<tspan x="10" y="1722">  │   └─┬ yargs@3.10.0 </tspan>
<tspan x="10" y="1738">  │     ├── camelcase@1.2.1 </tspan>
<tspan x="10" y="1754">  │     ├─┬ cliui@2.1.0 </tspan>
<tspan x="10" y="1770">  │     │ ├─┬ center-align@0.1.3 </tspan>
<tspan x="10" y="1786">  │     │ │ ├─┬ align-text@0.1.4 </tspan>
<tspan x="10" y="1802">  │     │ │ │ ├─┬ kind-of@3.1.0 </tspan>
<tspan x="10" y="1818">  │     │ │ │ │ └── is-buffer@1.1.5 </tspan>
<tspan x="10" y="1834">  │     │ │ │ ├── longest@1.0.1 </tspan>
<tspan x="10" y="1850">  │     │ │ │ └── repeat-string@1.6.1 </tspan>
<tspan x="10" y="1866">  │     │ │ └── lazy-cache@1.0.4 </tspan>
<tspan x="10" y="1882">  │     │ ├── right-align@0.1.3 </tspan>
<tspan x="10" y="1898">  │     │ └── wordwrap@0.0.2 </tspan>
<tspan x="10" y="1914">  │     ├── decamelize@1.2.0 </tspan>
<tspan x="10" y="1930">  │     └── window-size@0.1.0 </tspan>
<tspan x="10" y="1946">  ├─┬ hapi@12.1.0 </tspan>
<tspan x="10" y="1962">  │ ├── accept@2.1.0 </tspan>
<tspan x="10" y="1978">  │ ├── ammo@2.0.0 </tspan>
<tspan x="10" y="1994">  │ ├── boom@3.1.1 </tspan>
<tspan x="10" y="2010">  │ ├── call@3.0.0 </tspan>
<tspan x="10" y="2026">  │ ├── catbox@7.1.0 </tspan>
<tspan x="10" y="2042">  │ ├── catbox-memory@2.0.1 </tspan>
<tspan x="10" y="2058">  │ ├── cryptiles@3.0.0 </tspan>
<tspan x="10" y="2074">  │ ├── heavy@4.0.0 </tspan>
<tspan x="10" y="2090">  │ ├── hoek@3.0.4 </tspan>
<tspan x="10" y="2106">  │ ├── iron@3.0.1 </tspan>
<tspan x="10" y="2122">  │ ├── items@2.0.0 </tspan>
<tspan x="10" y="2138">  │ ├─┬ joi@7.1.0 </tspan>
<tspan x="10" y="2154">  │ │ ├── isemail@2.1.0 </tspan>
<tspan x="10" y="2170">  │ │ └── moment@2.11.0 </tspan>
<tspan x="10" y="2186">  │ ├── kilt@2.0.0 </tspan>
<tspan x="10" y="2202">  │ ├─┬ mimos@3.0.0 </tspan>
<tspan x="10" y="2218">  │ │ └── mime-db@1.20.0 </tspan>
<tspan x="10" y="2234">  │ ├── peekaboo@2.0.0 </tspan>
<tspan x="10" y="2250">  │ ├── shot@3.0.0 </tspan>
<tspan x="10" y="2266">  │ ├── statehood@3.1.0 </tspan>
<tspan x="10" y="2282">  │ ├─┬ subtext@4.0.0 </tspan>
<tspan x="10" y="2298">  │ │ ├── content@3.0.0 </tspan>
<tspan x="10" y="2314">  │ │ ├─┬ pez@2.0.1 </tspan>
<tspan x="10" y="2330">  │ │ │ ├── b64@3.0.0 </tspan>
<tspan x="10" y="2346">  │ │ │ └─┬ nigel@2.0.0 </tspan>
<tspan x="10" y="2362">  │ │ │   └── vise@2.0.0 </tspan>
<tspan x="10" y="2378">  │ │ └── wreck@7.0.0 </tspan>
<tspan x="10" y="2394">  │ └── topo@2.0.0 </tspan>
<tspan x="10" y="2410">  ├── hoek@3.0.4 </tspan>
<tspan x="10" y="2426">  ├─┬ inert@3.2.0 </tspan>
<tspan x="10" y="2442">  │ ├─┬ ammo@1.0.1 </tspan>
<tspan x="10" y="2458">  │ │ └── hoek@2.16.3 </tspan>
<tspan x="10" y="2474">  │ ├─┬ boom@2.10.1 </tspan>
<tspan x="10" y="2490">  │ │ └── hoek@2.16.3 </tspan>
<tspan x="10" y="2506">  │ ├── hoek@2.16.3 </tspan>
<tspan x="10" y="2522">  │ ├── items@1.1.1 </tspan>
<tspan x="10" y="2538">  │ ├─┬ joi@6.10.1 </tspan>
<tspan x="10" y="2554">  │ │ ├── isemail@1.2.0 </tspan>
<tspan x="10" y="2570">  │ │ └─┬ topo@1.1.0 </tspan>
<tspan x="10" y="2586">  │ │   └── hoek@2.16.3 </tspan>
<tspan x="10" y="2602">  │ └── lru-cache@2.7.3 </tspan>
<tspan x="10" y="2618">  ├─┬ joi@7.2.2 </tspan>
<tspan x="10" y="2634">  │ ├── isemail@2.2.1 </tspan>
<tspan x="10" y="2650">  │ ├── moment@2.18.1 </tspan>
<tspan x="10" y="2666">  │ └─┬ topo@2.0.2 </tspan>
<tspan x="10" y="2682">  │   └── hoek@4.1.1 </tspan>
<tspan x="10" y="2698">  ├── lodash@4.0.0 </tspan>
<tspan x="10" y="2714">  ├── sf@0.1.8 </tspan>
<tspan x="10" y="2730">  ├── shortid@2.2.4 </tspan>
<tspan x="10" y="2746">  └─┬ vision@4.0.1 </tspan>
<tspan x="10" y="2762">    ├─┬ boom@3.2.2 </tspan>
<tspan x="10" y="2778">    │ └── hoek@4.1.1 </tspan>
<tspan x="10" y="2794">    └── items@2.1.1</tspan>
</text>
</svg>
